<?xml version="1.0" standalone="no"?>
<!DOCTYPE svg PUBLIC "-//W3C//DTD SVG 20010904//EN"
 "http://www.w3.org/TR/2001/REC-SVG-20010904/DTD/svg10.dtd">
<svg version="1.0" xmlns="http://www.w3.org/2000/svg"
 width="100.000000pt" height="100.000000pt" viewBox="0 0 100.000000 100.000000"
 preserveAspectRatio="xMidYMid meet">
<metadata>
Created by potrace 1.15, written by Peter Selinger 2001-2017
</metadata>
<g transform="translate(0.000000,100.000000) scale(0.100000,-0.100000)"
fill="#000000" stroke="none">
<path d="M132 588 l3 -413 65 -32 c36 -18 66 -33 67 -33 2 0 4 154 5 343 l3
343 77 -35 77 -35 3 -100 3 -99 40 -14 c35 -13 44 -13 77 1 l38 16 0 98 0 97
78 36 77 35 3 -344 c1 -189 6 -342 10 -340 4 2 35 17 70 33 l62 28 0 414 c0
227 -2 413 -3 413 -2 0 -86 -38 -186 -85 -100 -47 -186 -85 -191 -85 -5 0 -91
38 -191 85 -100 47 -184 85 -186 85 -2 0 -2 -186 -1 -412z"/>
<path d="M430 212 l0 -179 40 -18 c39 -17 41 -17 80 0 l40 18 0 179 c0 98 -2
178 -4 178 -2 0 -20 -7 -40 -15 -32 -14 -40 -14 -72 0 -20 8 -38 15 -40 15 -2
0 -4 -80 -4 -178z"/>
</g>
</svg>
